<svg xmlns="http://www.w3.org/2000/svg" xmlns:xlink="http://www.w3.org/1999/xlink" width="1080" zoomAndPan="magnify" viewBox="0 0 810 157.5" height="210" preserveAspectRatio="xMidYMid meet" version="1.0"><path fill="#000000" d="M 257.292969 92.839844 L 222.75 30.917969 C 221.523438 28.636719 219.933594 26.996094 217.964844 26.015625 C 216.011719 25.039062 213.71875 24.542969 211.113281 24.542969 C 208.988281 24.542969 207.035156 25.011719 205.234375 25.953125 C 203.4375 26.890625 201.992188 28.285156 200.882812 30.121094 C 199.773438 31.960938 199.226562 34.1875 199.226562 36.796875 L 199.226562 108.351562 L 213.679688 108.351562 L 213.679688 40.601562 C 213.757812 40.601562 213.785156 40.640625 213.746094 40.71875 C 213.707031 40.796875 213.679688 40.964844 213.679688 41.214844 L 248.222656 103.449219 C 249.449219 105.652344 251.105469 107.269531 253.1875 108.285156 C 255.273438 109.300781 257.542969 109.808594 259.992188 109.808594 C 262.039062 109.808594 263.925781 109.339844 265.6875 108.402344 C 267.445312 107.464844 268.890625 106.097656 270.039062 104.296875 C 271.183594 102.5 271.757812 100.296875 271.757812 97.675781 L 271.757812 26.132812 L 257.308594 26.132812 L 257.308594 92.828125 Z M 257.292969 92.839844 " fill-opacity="1" fill-rule="nonzero"/><path fill="#000000" d="M 329.683594 76.496094 C 329.683594 79.925781 329.109375 83.089844 327.960938 85.984375 C 326.816406 88.890625 325.109375 91.210938 322.8125 92.972656 C 320.519531 94.730469 317.707031 95.605469 314.355469 95.605469 C 311.007812 95.605469 308.195312 94.730469 305.898438 92.972656 C 303.621094 91.210938 301.925781 88.890625 300.816406 85.984375 C 299.710938 83.089844 299.164062 79.964844 299.164062 76.613281 L 299.164062 48.070312 L 284.347656 48.070312 L 284.347656 78.203125 C 284.347656 84.082031 285.492188 89.414062 287.773438 94.195312 C 290.054688 98.964844 293.457031 102.773438 297.9375 105.585938 C 302.433594 108.402344 307.90625 109.808594 314.355469 109.808594 C 320.808594 109.808594 326.386719 108.414062 330.828125 105.640625 C 335.273438 102.863281 338.648438 99.070312 340.925781 94.25 C 343.207031 89.425781 344.355469 84.121094 344.355469 78.320312 L 344.355469 48.058594 L 329.65625 48.058594 L 329.65625 76.484375 Z M 329.683594 76.496094 " fill-opacity="1" fill-rule="nonzero"/><path fill="#000000" d="M 397.914062 48.070312 L 381.011719 95.238281 C 381.089844 95.410156 381.074219 95.550781 380.945312 95.667969 C 380.816406 95.785156 380.644531 95.851562 380.398438 95.851562 C 380.230469 95.851562 380.097656 95.785156 379.96875 95.667969 C 379.851562 95.550781 379.785156 95.410156 379.785156 95.238281 L 363.003906 48.070312 L 347.324219 48.070312 L 366.195312 99.410156 C 367.496094 102.929688 369.375 105.5625 371.824219 107.308594 C 374.273438 109.066406 377.128906 109.941406 380.398438 109.941406 C 383.667969 109.941406 386.601562 109.066406 388.972656 107.308594 C 391.34375 105.546875 393.183594 102.914062 394.484375 99.410156 L 413.589844 48.070312 Z M 397.914062 48.070312 " fill-opacity="1" fill-rule="nonzero"/><path fill="#000000" d="M 461.660156 50.519531 C 456.800781 47.746094 451.261719 46.363281 445.058594 46.363281 C 438.855469 46.363281 433.433594 47.796875 428.585938 50.652344 C 423.726562 53.503906 419.871094 57.351562 417.015625 62.160156 C 414.160156 66.980469 412.726562 72.285156 412.726562 78.085938 C 412.726562 83.886719 414.019531 89.191406 416.585938 94.015625 C 419.152344 98.835938 422.710938 102.667969 427.246094 105.535156 C 431.78125 108.390625 436.941406 109.824219 442.738281 109.824219 C 447.886719 109.824219 452.355469 108.675781 456.148438 106.394531 C 459.144531 104.582031 461.609375 102.25 463.5625 99.421875 L 463.5625 108.351562 L 477.53125 108.351562 L 477.53125 78.085938 C 477.53125 72.039062 476.097656 66.628906 473.246094 61.859375 C 470.390625 57.078125 466.519531 53.308594 461.671875 50.519531 Z M 460.433594 87.027344 C 458.921875 89.726562 456.839844 91.890625 454.191406 93.519531 C 451.535156 95.148438 448.5 95.96875 445.070312 95.96875 C 441.644531 95.96875 438.726562 95.148438 436.066406 93.519531 C 433.410156 91.890625 431.3125 89.726562 429.761719 87.027344 C 428.210938 84.328125 427.425781 81.398438 427.425781 78.203125 C 427.425781 74.855469 428.210938 71.832031 429.761719 69.132812 C 431.3125 66.433594 433.410156 64.296875 436.066406 62.695312 C 438.726562 61.105469 441.722656 60.308594 445.070312 60.308594 C 448.421875 60.308594 451.546875 61.105469 454.191406 62.695312 C 456.851562 64.285156 458.921875 66.433594 460.433594 69.132812 C 461.945312 71.832031 462.703125 74.855469 462.703125 78.203125 C 462.703125 81.554688 461.945312 84.328125 460.433594 87.027344 Z M 460.433594 87.027344 " fill-opacity="1" fill-rule="nonzero"/><path fill="#000000" d="M 535.832031 50.703125 C 531.257812 47.886719 525.539062 46.480469 518.683594 46.480469 C 511.828125 46.480469 506.253906 47.886719 501.71875 50.703125 C 497.183594 53.519531 493.753906 57.3125 491.421875 62.09375 C 489.089844 66.878906 487.929688 72.207031 487.929688 78.085938 L 487.929688 108.351562 L 502.746094 108.351562 L 502.746094 79.675781 C 502.746094 76.25 503.320312 73.109375 504.46875 70.242188 C 505.613281 67.386719 507.359375 65.078125 509.730469 63.320312 C 512.101562 61.558594 515.074219 60.6875 518.671875 60.6875 C 522.265625 60.6875 525.382812 61.558594 527.792969 63.320312 C 530.203125 65.078125 532 67.398438 533.1875 70.304688 C 534.375 73.199219 534.960938 76.367188 534.960938 79.792969 L 534.960938 108.335938 L 549.660156 108.335938 L 549.660156 77.957031 C 549.660156 72.15625 548.5 66.863281 546.167969 62.09375 C 543.835938 57.3125 540.394531 53.519531 535.820312 50.703125 Z M 535.832031 50.703125 " fill-opacity="1" fill-rule="nonzero"/><path fill="#000000" d="M 605.71875 50.519531 C 600.859375 47.746094 595.320312 46.363281 589.117188 46.363281 C 582.914062 46.363281 577.492188 47.796875 572.644531 50.652344 C 567.785156 53.503906 563.929688 57.351562 561.074219 62.160156 C 558.21875 66.980469 556.785156 72.285156 556.785156 78.085938 C 556.785156 83.886719 558.078125 89.191406 560.644531 94.015625 C 563.210938 98.835938 566.769531 102.667969 571.304688 105.535156 C 575.839844 108.390625 581 109.824219 586.796875 109.824219 C 591.945312 109.824219 596.414062 108.675781 600.207031 106.394531 C 603.203125 104.582031 605.667969 102.25 607.621094 99.421875 L 607.621094 108.351562 L 621.589844 108.351562 L 621.589844 78.085938 C 621.589844 72.039062 620.15625 66.628906 617.304688 61.859375 C 614.449219 57.078125 610.578125 53.308594 605.730469 50.519531 Z M 604.492188 87.027344 C 602.980469 89.726562 600.898438 91.890625 598.25 93.519531 C 595.59375 95.148438 592.558594 95.96875 589.128906 95.96875 C 585.703125 95.96875 582.785156 95.148438 580.125 93.519531 C 577.46875 91.890625 575.371094 89.726562 573.820312 87.027344 C 572.269531 84.328125 571.484375 81.398438 571.484375 78.203125 C 571.484375 74.855469 572.269531 71.832031 573.820312 69.132812 C 575.371094 66.433594 577.46875 64.296875 580.125 62.695312 C 582.785156 61.105469 585.78125 60.308594 589.128906 60.308594 C 592.480469 60.308594 595.605469 61.105469 598.25 62.695312 C 600.910156 64.285156 602.980469 66.433594 604.492188 69.132812 C 606.003906 71.832031 606.761719 74.855469 606.761719 78.203125 C 606.761719 81.554688 606.003906 84.328125 604.492188 87.027344 Z M 604.492188 87.027344 " fill-opacity="1" fill-rule="nonzero"/><path fill="#000000" d="M 647.601562 92.175781 C 646.167969 91.355469 644.601562 90.949219 642.882812 90.949219 C 641.164062 90.949219 639.597656 91.355469 638.164062 92.175781 C 636.730469 92.996094 635.613281 94.09375 634.804688 95.488281 C 633.984375 96.882812 633.578125 98.433594 633.578125 100.140625 C 633.578125 101.847656 633.984375 103.449219 634.804688 104.921875 C 635.625 106.394531 636.746094 107.542969 638.164062 108.351562 C 639.597656 109.171875 641.164062 109.574219 642.882812 109.574219 C 644.601562 109.574219 646.167969 109.171875 647.601562 108.351562 C 649.035156 107.53125 650.15625 106.394531 650.960938 104.921875 C 651.78125 103.449219 652.1875 101.859375 652.1875 100.140625 C 652.1875 98.417969 651.78125 96.867188 650.960938 95.488281 C 650.140625 94.105469 649.019531 92.996094 647.601562 92.175781 Z M 647.601562 92.175781 " fill-opacity="1" fill-rule="nonzero"/><path fill="#000000" d="M 708.363281 50.574219 C 703.503906 47.835938 697.964844 46.46875 691.761719 46.46875 C 685.558594 46.46875 680.140625 47.875 675.292969 50.691406 C 670.429688 53.503906 666.574219 57.296875 663.71875 62.082031 C 660.867188 66.863281 659.433594 72.144531 659.433594 77.941406 C 659.433594 83.742188 660.800781 89.230469 663.539062 93.933594 C 666.273438 98.628906 669.949219 102.355469 674.5625 105.078125 C 679.175781 107.816406 684.296875 109.183594 689.9375 109.183594 C 694.917969 109.183594 699.097656 108.21875 702.488281 106.304688 C 705.445312 104.636719 707.726562 102.539062 709.40625 100.085938 L 709.40625 102.929688 C 709.40625 107.253906 708.613281 110.996094 707.023438 114.136719 C 705.433594 117.277344 703.203125 119.714844 700.351562 121.421875 C 697.496094 123.144531 694.148438 123.992188 690.304688 123.992188 C 686.054688 123.992188 682.457031 123.050781 679.527344 121.175781 C 676.582031 119.300781 674.339844 116.925781 672.789062 114.074219 L 660.539062 120.695312 C 663.316406 126.167969 667.316406 130.351562 672.542969 133.246094 C 677.765625 136.136719 683.773438 137.597656 690.550781 137.597656 C 697.328125 137.597656 702.761719 136.152344 707.816406 133.246094 C 712.886719 130.351562 716.886719 126.285156 719.816406 121.058594 C 722.761719 115.832031 724.222656 109.707031 724.222656 102.679688 L 724.222656 78.058594 C 724.222656 72.011719 722.789062 66.605469 719.9375 61.832031 C 717.082031 57.050781 713.210938 53.296875 708.363281 50.558594 Z M 706.890625 86.597656 C 705.300781 89.257812 703.175781 91.355469 700.519531 92.90625 C 697.859375 94.457031 694.863281 95.226562 691.515625 95.226562 C 688.164062 95.226562 685.390625 94.457031 682.691406 92.90625 C 679.996094 91.355469 677.871094 89.257812 676.320312 86.597656 C 674.769531 83.9375 673.988281 80.980469 673.988281 77.722656 C 673.988281 74.464844 674.757812 71.414062 676.320312 68.832031 C 677.871094 66.265625 679.996094 64.191406 682.691406 62.640625 C 685.390625 61.089844 688.320312 60.308594 691.515625 60.308594 C 694.863281 60.308594 697.859375 61.089844 700.519531 62.640625 C 703.175781 64.191406 705.300781 66.253906 706.890625 68.832031 C 708.480469 71.398438 709.277344 74.371094 709.277344 77.722656 C 709.277344 81.070312 708.480469 83.953125 706.890625 86.597656 Z M 706.890625 86.597656 " fill-opacity="1" fill-rule="nonzero"/><path fill="#000000" d="M 791.839844 62.160156 C 788.988281 57.335938 785.117188 53.503906 780.269531 50.652344 C 775.410156 47.796875 769.871094 46.363281 763.667969 46.363281 C 757.464844 46.363281 752.148438 47.796875 747.25 50.652344 C 742.347656 53.503906 738.464844 57.324219 735.613281 62.109375 C 732.757812 66.890625 731.324219 72.222656 731.324219 78.101562 C 731.324219 83.976562 732.757812 89.203125 735.613281 94.027344 C 738.464844 98.847656 742.347656 102.679688 747.25 105.546875 C 752.148438 108.402344 757.621094 109.835938 763.667969 109.835938 C 769.714844 109.835938 775.304688 108.402344 780.203125 105.546875 C 785.105469 102.695312 788.988281 98.847656 791.839844 94.027344 C 794.695312 89.203125 796.128906 83.898438 796.128906 78.101562 C 796.128906 72.300781 794.695312 66.996094 791.839844 62.171875 Z M 779.042969 87.027344 C 777.53125 89.726562 775.449219 91.890625 772.800781 93.519531 C 770.144531 95.148438 767.109375 95.96875 763.679688 95.96875 C 760.253906 95.96875 757.335938 95.148438 754.675781 93.519531 C 752.019531 91.890625 749.921875 89.726562 748.371094 87.027344 C 746.820312 84.328125 746.035156 81.398438 746.035156 78.203125 C 746.035156 74.855469 746.820312 71.832031 748.371094 69.132812 C 749.921875 66.433594 752.019531 64.296875 754.675781 62.695312 C 757.335938 61.105469 760.332031 60.308594 763.679688 60.308594 C 767.03125 60.308594 770.15625 61.105469 772.800781 62.695312 C 775.460938 64.285156 777.53125 66.433594 779.042969 69.132812 C 780.554688 71.832031 781.3125 74.855469 781.3125 78.203125 C 781.3125 81.554688 780.554688 84.328125 779.042969 87.027344 Z M 779.042969 87.027344 " fill-opacity="1" fill-rule="nonzero"/><path fill="#efe7dc" d="M 257.292969 92.839844 L 222.75 30.917969 C 221.523438 28.636719 219.933594 26.996094 217.964844 26.015625 C 216.011719 25.039062 213.71875 24.542969 211.113281 24.542969 C 208.988281 24.542969 207.035156 25.011719 205.234375 25.953125 C 203.4375 26.890625 201.992188 28.285156 200.882812 30.121094 C 199.773438 31.960938 199.226562 34.1875 199.226562 36.796875 L 199.226562 108.351562 L 213.679688 108.351562 L 213.679688 40.601562 C 213.757812 40.601562 213.785156 40.640625 213.746094 40.71875 C 213.707031 40.796875 213.679688 40.964844 213.679688 41.214844 L 248.222656 103.449219 C 249.449219 105.652344 251.105469 107.269531 253.1875 108.285156 C 255.273438 109.300781 257.542969 109.808594 259.992188 109.808594 C 262.039062 109.808594 263.925781 109.339844 265.6875 108.402344 C 267.445312 107.464844 268.890625 106.097656 270.039062 104.296875 C 271.183594 102.5 271.757812 100.296875 271.757812 97.675781 L 271.757812 26.132812 L 257.308594 26.132812 L 257.308594 92.828125 Z M 257.292969 92.839844 " fill-opacity="1" fill-rule="evenodd"/><path fill="#efe7dc" d="M 329.683594 76.496094 C 329.683594 79.925781 329.109375 83.089844 327.960938 85.984375 C 326.816406 88.890625 325.109375 91.210938 322.8125 92.972656 C 320.519531 94.730469 317.707031 95.605469 314.355469 95.605469 C 311.007812 95.605469 308.195312 94.730469 305.898438 92.972656 C 303.621094 91.210938 301.925781 88.890625 300.816406 85.984375 C 299.710938 83.089844 299.164062 79.964844 299.164062 76.613281 L 299.164062 48.070312 L 284.347656 48.070312 L 284.347656 78.203125 C 284.347656 84.082031 285.492188 89.414062 287.773438 94.195312 C 290.054688 98.964844 293.457031 102.773438 297.9375 105.585938 C 302.433594 108.402344 307.90625 109.808594 314.355469 109.808594 C 320.808594 109.808594 326.386719 108.414062 330.828125 105.640625 C 335.273438 102.863281 338.648438 99.070312 340.925781 94.25 C 343.207031 89.425781 344.355469 84.121094 344.355469 78.320312 L 344.355469 48.058594 L 329.65625 48.058594 L 329.65625 76.484375 Z M 329.683594 76.496094 " fill-opacity="1" fill-rule="evenodd"/><path fill="#efe7dc" d="M 397.914062 48.070312 L 381.011719 95.238281 C 381.089844 95.410156 381.074219 95.550781 380.945312 95.667969 C 380.816406 95.785156 380.644531 95.851562 380.398438 95.851562 C 380.230469 95.851562 380.097656 95.785156 379.96875 95.667969 C 379.851562 95.550781 379.785156 95.410156 379.785156 95.238281 L 363.003906 48.070312 L 347.324219 48.070312 L 366.195312 99.410156 C 367.496094 102.929688 369.375 105.5625 371.824219 107.308594 C 374.273438 109.066406 377.128906 109.941406 380.398438 109.941406 C 383.667969 109.941406 386.601562 109.066406 388.972656 107.308594 C 391.34375 105.546875 393.183594 102.914062 394.484375 99.410156 L 413.589844 48.070312 Z M 397.914062 48.070312 " fill-opacity="1" fill-rule="evenodd"/><path fill="#efe7dc" d="M 461.660156 50.519531 C 456.800781 47.746094 451.261719 46.363281 445.058594 46.363281 C 438.855469 46.363281 433.433594 47.796875 428.585938 50.652344 C 423.726562 53.503906 419.871094 57.351562 417.015625 62.160156 C 414.160156 66.980469 412.726562 72.285156 412.726562 78.085938 C 412.726562 83.886719 414.019531 89.191406 416.585938 94.015625 C 419.152344 98.835938 422.710938 102.667969 427.246094 105.535156 C 431.78125 108.390625 436.941406 109.824219 442.738281 109.824219 C 447.886719 109.824219 452.355469 108.675781 456.148438 106.394531 C 459.144531 104.582031 461.609375 102.25 463.5625 99.421875 L 463.5625 108.351562 L 477.53125 108.351562 L 477.53125 78.085938 C 477.53125 72.039062 476.097656 66.628906 473.246094 61.859375 C 470.390625 57.078125 466.519531 53.308594 461.671875 50.519531 Z M 460.433594 87.027344 C 458.921875 89.726562 456.839844 91.890625 454.191406 93.519531 C 451.535156 95.148438 448.5 95.96875 445.070312 95.96875 C 441.644531 95.96875 438.726562 95.148438 436.066406 93.519531 C 433.410156 91.890625 431.3125 89.726562 429.761719 87.027344 C 428.210938 84.328125 427.425781 81.398438 427.425781 78.203125 C 427.425781 74.855469 428.210938 71.832031 429.761719 69.132812 C 431.3125 66.433594 433.410156 64.296875 436.066406 62.695312 C 438.726562 61.105469 441.722656 60.308594 445.070312 60.308594 C 448.421875 60.308594 451.546875 61.105469 454.191406 62.695312 C 456.851562 64.285156 458.921875 66.433594 460.433594 69.132812 C 461.945312 71.832031 462.703125 74.855469 462.703125 78.203125 C 462.703125 81.554688 461.945312 84.328125 460.433594 87.027344 Z M 460.433594 87.027344 " fill-opacity="1" fill-rule="evenodd"/><path fill="#efe7dc" d="M 535.832031 50.703125 C 531.257812 47.886719 525.539062 46.480469 518.683594 46.480469 C 511.828125 46.480469 506.253906 47.886719 501.71875 50.703125 C 497.183594 53.519531 493.753906 57.3125 491.421875 62.09375 C 489.089844 66.878906 487.929688 72.207031 487.929688 78.085938 L 487.929688 108.351562 L 502.746094 108.351562 L 502.746094 79.675781 C 502.746094 76.25 503.320312 73.109375 504.46875 70.242188 C 505.613281 67.386719 507.359375 65.078125 509.730469 63.320312 C 512.101562 61.558594 515.074219 60.6875 518.671875 60.6875 C 522.265625 60.6875 525.382812 61.558594 527.792969 63.320312 C 530.203125 65.078125 532 67.398438 533.1875 70.304688 C 534.375 73.199219 534.960938 76.367188 534.960938 79.792969 L 534.960938 108.335938 L 549.660156 108.335938 L 549.660156 77.957031 C 549.660156 72.15625 548.5 66.863281 546.167969 62.09375 C 543.835938 57.3125 540.394531 53.519531 535.820312 50.703125 Z M 535.832031 50.703125 " fill-opacity="1" fill-rule="evenodd"/><path fill="#efe7dc" d="M 605.71875 50.519531 C 600.859375 47.746094 595.320312 46.363281 589.117188 46.363281 C 582.914062 46.363281 577.492188 47.796875 572.644531 50.652344 C 567.785156 53.503906 563.929688 57.351562 561.074219 62.160156 C 558.21875 66.980469 556.785156 72.285156 556.785156 78.085938 C 556.785156 83.886719 558.078125 89.191406 560.644531 94.015625 C 563.210938 98.835938 566.769531 102.667969 571.304688 105.535156 C 575.839844 108.390625 581 109.824219 586.796875 109.824219 C 591.945312 109.824219 596.414062 108.675781 600.207031 106.394531 C 603.203125 104.582031 605.667969 102.25 607.621094 99.421875 L 607.621094 108.351562 L 621.589844 108.351562 L 621.589844 78.085938 C 621.589844 72.039062 620.15625 66.628906 617.304688 61.859375 C 614.449219 57.078125 610.578125 53.308594 605.730469 50.519531 Z M 604.492188 87.027344 C 602.980469 89.726562 600.898438 91.890625 598.25 93.519531 C 595.59375 95.148438 592.558594 95.96875 589.128906 95.96875 C 585.703125 95.96875 582.785156 95.148438 580.125 93.519531 C 577.46875 91.890625 575.371094 89.726562 573.820312 87.027344 C 572.269531 84.328125 571.484375 81.398438 571.484375 78.203125 C 571.484375 74.855469 572.269531 71.832031 573.820312 69.132812 C 575.371094 66.433594 577.46875 64.296875 580.125 62.695312 C 582.785156 61.105469 585.78125 60.308594 589.128906 60.308594 C 592.480469 60.308594 595.605469 61.105469 598.25 62.695312 C 600.910156 64.285156 602.980469 66.433594 604.492188 69.132812 C 606.003906 71.832031 606.761719 74.855469 606.761719 78.203125 C 606.761719 81.554688 606.003906 84.328125 604.492188 87.027344 Z M 604.492188 87.027344 " fill-opacity="1" fill-rule="evenodd"/><path fill="#efe7dc" d="M 647.601562 92.175781 C 646.167969 91.355469 644.601562 90.949219 642.882812 90.949219 C 641.164062 90.949219 639.597656 91.355469 638.164062 92.175781 C 636.730469 92.996094 635.613281 94.09375 634.804688 95.488281 C 633.984375 96.882812 633.578125 98.433594 633.578125 100.140625 C 633.578125 101.847656 633.984375 103.449219 634.804688 104.921875 C 635.625 106.394531 636.746094 107.542969 638.164062 108.351562 C 639.597656 109.171875 641.164062 109.574219 642.882812 109.574219 C 644.601562 109.574219 646.167969 109.171875 647.601562 108.351562 C 649.035156 107.53125 650.15625 106.394531 650.960938 104.921875 C 651.78125 103.449219 652.1875 101.859375 652.1875 100.140625 C 652.1875 98.417969 651.78125 96.867188 650.960938 95.488281 C 650.140625 94.105469 649.019531 92.996094 647.601562 92.175781 Z M 647.601562 92.175781 " fill-opacity="1" fill-rule="evenodd"/><path fill="#efe7dc" d="M 708.363281 50.574219 C 703.503906 47.835938 697.964844 46.46875 691.761719 46.46875 C 685.558594 46.46875 680.140625 47.875 675.292969 50.691406 C 670.429688 53.503906 666.574219 57.296875 663.71875 62.082031 C 660.867188 66.863281 659.433594 72.144531 659.433594 77.941406 C 659.433594 83.742188 660.800781 89.230469 663.539062 93.933594 C 666.273438 98.628906 669.949219 102.355469 674.5625 105.078125 C 679.175781 107.816406 684.296875 109.183594 689.9375 109.183594 C 694.917969 109.183594 699.097656 108.21875 702.488281 106.304688 C 705.445312 104.636719 707.726562 102.539062 709.40625 100.085938 L 709.40625 102.929688 C 709.40625 107.253906 708.613281 110.996094 707.023438 114.136719 C 705.433594 117.277344 703.203125 119.714844 700.351562 121.421875 C 697.496094 123.144531 694.148438 123.992188 690.304688 123.992188 C 686.054688 123.992188 682.457031 123.050781 679.527344 121.175781 C 676.582031 119.300781 674.339844 116.925781 672.789062 114.074219 L 660.539062 120.695312 C 663.316406 126.167969 667.316406 130.351562 672.542969 133.246094 C 677.765625 136.136719 683.773438 137.597656 690.550781 137.597656 C 697.328125 137.597656 702.761719 136.152344 707.816406 133.246094 C 712.886719 130.351562 716.886719 126.285156 719.816406 121.058594 C 722.761719 115.832031 724.222656 109.707031 724.222656 102.679688 L 724.222656 78.058594 C 724.222656 72.011719 722.789062 66.605469 719.9375 61.832031 C 717.082031 57.050781 713.210938 53.296875 708.363281 50.558594 Z M 706.890625 86.597656 C 705.300781 89.257812 703.175781 91.355469 700.519531 92.90625 C 697.859375 94.457031 694.863281 95.226562 691.515625 95.226562 C 688.164062 95.226562 685.390625 94.457031 682.691406 92.90625 C 679.996094 91.355469 677.871094 89.257812 676.320312 86.597656 C 674.769531 83.9375 673.988281 80.980469 673.988281 77.722656 C 673.988281 74.464844 674.757812 71.414062 676.320312 68.832031 C 677.871094 66.265625 679.996094 64.191406 682.691406 62.640625 C 685.390625 61.089844 688.320312 60.308594 691.515625 60.308594 C 694.863281 60.308594 697.859375 61.089844 700.519531 62.640625 C 703.175781 64.191406 705.300781 66.253906 706.890625 68.832031 C 708.480469 71.398438 709.277344 74.371094 709.277344 77.722656 C 709.277344 81.070312 708.480469 83.953125 706.890625 86.597656 Z M 706.890625 86.597656 " fill-opacity="1" fill-rule="evenodd"/><path fill="#efe7dc" d="M 791.839844 62.160156 C 788.988281 57.335938 785.117188 53.503906 780.269531 50.652344 C 775.410156 47.796875 769.871094 46.363281 763.667969 46.363281 C 757.464844 46.363281 752.148438 47.796875 747.25 50.652344 C 742.347656 53.503906 738.464844 57.324219 735.613281 62.109375 C 732.757812 66.890625 731.324219 72.222656 731.324219 78.101562 C 731.324219 83.976562 732.757812 89.203125 735.613281 94.027344 C 738.464844 98.847656 742.347656 102.679688 747.25 105.546875 C 752.148438 108.402344 757.621094 109.835938 763.667969 109.835938 C 769.714844 109.835938 775.304688 108.402344 780.203125 105.546875 C 785.105469 102.695312 788.988281 98.847656 791.839844 94.027344 C 794.695312 89.203125 796.128906 83.898438 796.128906 78.101562 C 796.128906 72.300781 794.695312 66.996094 791.839844 62.171875 Z M 779.042969 87.027344 C 777.53125 89.726562 775.449219 91.890625 772.800781 93.519531 C 770.144531 95.148438 767.109375 95.96875 763.679688 95.96875 C 760.253906 95.96875 757.335938 95.148438 754.675781 93.519531 C 752.019531 91.890625 749.921875 89.726562 748.371094 87.027344 C 746.820312 84.328125 746.035156 81.398438 746.035156 78.203125 C 746.035156 74.855469 746.820312 71.832031 748.371094 69.132812 C 749.921875 66.433594 752.019531 64.296875 754.675781 62.695312 C 757.335938 61.105469 760.332031 60.308594 763.679688 60.308594 C 767.03125 60.308594 770.15625 61.105469 772.800781 62.695312 C 775.460938 64.285156 777.53125 66.433594 779.042969 69.132812 C 780.554688 71.832031 781.3125 74.855469 781.3125 78.203125 C 781.3125 81.554688 780.554688 84.328125 779.042969 87.027344 Z M 779.042969 87.027344 " fill-opacity="1" fill-rule="evenodd"/><path fill="#f99523" d="M 159.925781 109.941406 L 131.269531 109.941406 C 122.851562 109.941406 115.152344 105.183594 111.398438 97.648438 L 84.074219 43 C 81.324219 37.5 75.707031 34.03125 69.570312 34.03125 L 45.449219 34.03125 C 43.519531 34.03125 42.097656 35.84375 42.570312 37.722656 L 59.691406 106.253906 C 60.160156 108.128906 58.738281 109.941406 56.8125 109.941406 L 33.132812 109.941406 C 27.359375 109.941406 22.671875 105.261719 22.671875 99.476562 L 22.671875 35.011719 C 22.671875 29.238281 27.347656 24.542969 33.132812 24.542969 L 104.453125 24.542969 C 112.519531 24.542969 119.960938 28.921875 123.882812 35.976562 L 162.519531 105.523438 C 163.613281 107.503906 162.195312 109.929688 159.925781 109.929688 Z M 159.925781 109.941406 " fill-opacity="1" fill-rule="evenodd"/></svg>